#!OML:ASF E:\Mandelcareful walks\Project 1\Capture day 1\Session 1\Subject1.ASF
:FULLY-SPECIFIED
:DEGREES
2810
root 21.3827 15.215 -2.42359 -522.854 73.3541 -527.735
lowerback 43.3351 0.973726 1.131
upperback 10.3901 3.26171 -3.25615
thorax -8.55568 2.3882 -5.58134
lowerneck -23.7618 11.0641 4.82514
upperneck 14.8201 19.5725 -22.5695
head 11.9054 7.09199 -5.30234
rclavicle -2.10712e-014 -4.57205e-015
rhumerus -14.8396 6.84029 -79.1462
rradius 66.4009
rwrist -23.0648
rhand -15.5828 -25.2018
rfingers 7.12502
rthumb 10.6026 -54.9143
lclavicle -2.10712e-014 -4.57205e-015
lhumerus -8.40247 -19.7468 73.1979
lradius 68.8728
lwrist 24.381
lhand -29.4086 -15.3612
lfingers 7.12502
lthumb -2.74628 14.6008
rfemur -16.426 -25.2995 18.928
rtibia 62.1312
rfoot -27.4876 -5.89057
rtoes -12.4139
lfemur -51.1999 27.4452 -31.3383
ltibia 62.8307
lfoot -26.2083 16.6313
ltoes 19.4315
2811
root 21.4858 15.2083 -2.44468 -523.915 71.9306 -528.609
lowerback 43.467 1.07978 0.844017
upperback 10.3207 3.28787 -3.39842
thorax -8.67276 2.41469 -5.60975
lowerneck -23.6527 11.2214 5.33661
upperneck 14.9546 19.6879 -22.6533
head 12.0191 7.15673 -5.39722
rclavicle 8.18993e-014 -1.09729e-013
rhumerus -14.9771 6.8367 -79.5193
rradius 66.5677
rwrist -22.8242
rhand -15.0722 -25.726
rfingers 7.12502
rthumb 11.0952 -55.4127
lclavicle 8.18993e-014 -1.09729e-013
lhumerus -8.28396 -20.1442 72.8702
lradius 68.6088
lwrist 25.056
lhand -29.6488 -15.9602
lfingers 7.12502
lthumb -2.97828 13.9987
rfemur -16.3912 -26.044 18.6159
rtibia 63.6643
rfoot -26.2792 -5.71084
rtoes -13.4822
lfemur -50.3879 26.5581 -30.9259
ltibia 62.9433
lfoot -26.5297 16.0837
ltoes 18.7163
2812
root 21.5788 15.194 -2.47012 -524.127 70.4072 -528.816
lowerback 43.3728 1.1197 0.77821
upperback 10.284 3.33548 -3.38544
thorax -8.68606 2.44463 -5.5819
lowerneck -23.7973 11.2858 5.26006
upperneck 15.1028 19.8157 -22.5173
head 12.0937 7.19941 -5.30438
rclavicle 2.18663e-014 -5.24792e-014
rhumerus -14.9592 7.22822 -79.5551
rradius 66.6659
rwrist -22.8005
rhand -14.9923 -25.6604
rfingers 7.12502
rthumb 11.1721 -55.343
lclavicle 2.18663e-014 -5.24792e-014
lhumerus -8.07512 -20.3606 72.7519
lradius 68.3598
lwrist 25.7143
lhand -29.6178 -16.1978
lfingers 7.12502
lthumb -2.94833 13.7616
rfemur -16.9386 -26.7903 18.5971
rtibia 65.6454
rfoot -24.5125 -5.70143
rtoes -14.8522
lfemur -49.8881 25.3457 -30.4049
ltibia 63.0139
lfoot -26.8705 15.7545
ltoes 18.1634
2813
root 21.6802 15.1952 -2.49354 -524.785 68.6065 -529.311
lowerback 43.3701 1.04671 0.678519
upperback 10.3403 3.27014 -3.28929
thorax -8.63393 2.43464 -5.39823
lowerneck -24.0373 11.2903 4.8681
upperneck 15.2385 19.8785 -22.1327
head 12.0973 7.21259 -5.08041
rclavicle -1.03368e-014 3.69739e-014
rhumerus -14.8596 7.94992 -79.4888
rradius 66.7775
rwrist -23.0574
rhand -15.2837 -25.264
rfingers 7.12502
rthumb 10.8911 -54.9616
lclavicle -1.03368e-014 3.69739e-014
lhumerus -7.89322 -20.3612 72.7449
lradius 68.2867
lwrist 26.1769
lhand -29.4676 -16.1706
lfingers 7.12502
lthumb -2.80329 13.7908
rfemur -17.4057 -27.6993 18.3651
rtibia 67.9068
rfoot -22.3249 -5.68905
rtoes -14.8638
lfemur -49.0781 24.1089 -29.8821
ltibia 63.0367
lfoot -27.0367 15.2922
ltoes 17.9949
2814
root 21.7745 15.2033 -2.52015 -525.846 66.9736 -530.231
lowerback 43.3409 1.05864 0.429641
upperback 10.4438 3.24594 -3.2952
thorax -8.51771 2.4532 -5.26197
lowerneck -24.2946 11.288 4.56018
upperneck 15.3253 19.9013 -21.7895
head 12.0946 7.21236 -4.89327
rclavicle 3.18055e-015 5.56597e-015
rhumerus -14.644 8.4588 -79.4529
rradius 66.9314
rwrist -23.3512
rhand -15.0213 -25.381
rfingers 7.12502
rthumb 11.1442 -55.0651
lclavicle 3.18055e-015 5.56597e-015
lhumerus -7.68681 -20.2467 72.8098
lradius 68.3137
lwrist 26.4397
lhand -29.4206 -16.1912
lfingers 7.12502
lthumb -2.75793 13.7707
rfemur -18.2227 -28.463 17.8303
rtibia 70.4576
rfoot -19.8285 -5.74702
rtoes -16.3204
lfemur -48.2728 23.0288 -29.6867
ltibia 63.0641
lfoot -27.142 14.7363
ltoes 18.266
